<?xml version="1.0" encoding="UTF-8" standalone="no"?><!-- Generator: Gravit.io --><svg xmlns="http://www.w3.org/2000/svg" xmlns:xlink="http://www.w3.org/1999/xlink" style="isolation:isolate" viewBox="0 0 670 92" width="670pt" height="92pt"><defs><clipPath id="_clipPath_yiZDiqGDRfuel5HUOmTpDFOKxJ45AQXv"><rect width="670" height="92"/></clipPath></defs><g clip-path="url(#_clipPath_yiZDiqGDRfuel5HUOmTpDFOKxJ45AQXv)"><path d=" M 46.031 4.089 C 22.743 4.089 3.868 22.965 3.868 46.252 C 3.868 69.54 22.743 88.415 46.031 88.415 L 88.194 88.415 L 88.194 46.252 C 88.194 22.965 69.318 4.089 46.031 4.089 Z  M 46.031 26.132 C 57.152 26.132 66.151 35.131 66.151 46.252 L 66.151 66.407 L 46.031 66.407 C 34.91 66.407 25.876 57.373 25.876 46.252 C 25.876 35.131 34.91 26.132 46.031 26.132 Z " fill-rule="evenodd" fill="rgb(5,145,160)"/><path d=" M 138.87 4.089 C 115.582 4.089 96.707 22.965 96.707 46.252 L 96.707 88.415 L 138.87 88.415 C 162.157 88.415 181.068 69.54 181.068 46.252 C 181.068 22.965 162.157 4.089 138.87 4.089 Z  M 138.87 26.132 C 149.991 26.132 159.025 35.131 159.025 46.252 C 159.025 57.373 149.991 66.407 138.87 66.407 L 118.75 66.407 L 118.75 46.252 C 118.75 35.131 127.748 26.132 138.87 26.132 Z " fill-rule="evenodd" fill="rgb(5,145,160)"/><path d=" M 234.007 5.287 L 260.718 5.287 L 240.595 80.988 L 240.595 80.988 Q 239.876 84.103 237.481 86.019 L 237.481 86.019 L 237.481 86.019 Q 235.085 87.936 231.731 87.936 L 231.731 87.936 L 208.973 87.936 L 208.973 87.936 Q 205.619 87.936 203.224 86.019 L 203.224 86.019 L 203.224 86.019 Q 200.828 84.103 200.109 80.988 L 200.109 80.988 L 179.986 5.287 L 206.697 5.287 L 217.358 59.068 L 217.358 59.068 Q 217.597 60.147 218.915 68.531 L 218.915 68.531 L 221.789 68.531 L 221.789 68.531 Q 222.269 64.339 223.347 59.068 L 223.347 59.068 L 234.007 5.287 Z  M 297.011 68.531 L 327.316 68.531 L 328.514 86.857 L 328.514 86.857 Q 316.536 88.415 285.512 88.415 L 285.512 88.415 L 285.512 88.415 Q 277.008 88.415 271.558 83.204 L 271.558 83.204 L 271.558 83.204 Q 266.108 77.994 266.108 69.609 L 266.108 69.609 L 266.108 23.614 L 266.108 23.614 Q 266.108 15.229 271.558 10.019 L 271.558 10.019 L 271.558 10.019 Q 277.008 4.808 285.512 4.808 L 285.512 4.808 L 285.512 4.808 Q 316.536 4.808 328.514 6.365 L 328.514 6.365 L 327.316 24.692 L 297.011 24.692 L 297.011 24.692 Q 294.736 24.692 293.418 25.889 L 293.418 25.889 L 293.418 25.889 Q 292.1 27.087 292.1 29.004 L 292.1 29.004 L 292.1 37.029 L 323.004 37.029 L 323.004 54.277 L 292.1 54.277 L 292.1 64.219 L 292.1 64.219 Q 292.1 66.136 293.418 67.333 L 293.418 67.333 L 293.418 67.333 Q 294.736 68.531 297.011 68.531 L 297.011 68.531 Z  M 404.814 62.542 L 411.282 87.936 L 384.092 87.936 L 378.701 63.381 L 378.701 63.381 Q 377.983 60.027 376.486 58.889 L 376.486 58.889 L 376.486 58.889 Q 374.988 57.751 371.634 57.751 L 371.634 57.751 L 363.609 57.751 L 363.609 87.936 L 338.096 87.936 L 338.096 5.287 L 338.096 5.287 Q 350.314 4.089 373.192 4.089 L 373.192 4.089 L 373.192 4.089 Q 391.877 4.089 399.962 9.599 L 399.962 9.599 L 399.962 9.599 Q 408.048 15.109 408.048 29.243 L 408.048 29.243 L 408.048 29.243 Q 408.048 47.21 391.278 48.887 L 391.278 48.887 L 391.278 49.606 L 391.278 49.606 Q 402.538 51.043 404.814 62.542 L 404.814 62.542 Z  M 363.609 22.416 L 363.609 39.425 L 372.593 39.425 L 372.593 39.425 Q 378.222 39.425 380.079 37.748 L 380.079 37.748 L 380.079 37.748 Q 381.936 36.071 381.936 30.92 L 381.936 30.92 L 381.936 30.92 Q 381.936 25.77 380.079 24.093 L 380.079 24.093 L 380.079 24.093 Q 378.222 22.416 372.593 22.416 L 372.593 22.416 L 363.609 22.416 Z  M 485.665 5.287 L 485.665 24.692 L 462.548 24.692 L 462.548 87.936 L 436.555 87.936 L 436.555 24.692 L 413.438 24.692 L 413.438 5.287 L 485.665 5.287 Z  M 518.964 5.287 L 518.964 87.936 L 493.211 87.936 L 493.211 5.287 L 518.964 5.287 Z  M 557.533 69.729 L 594.426 69.729 L 594.426 87.936 L 528.786 87.936 L 528.786 69.729 L 564.481 23.494 L 529.984 23.494 L 529.984 5.287 L 593.228 5.287 L 593.228 23.494 L 557.533 69.729 Z  M 634.312 68.531 L 664.617 68.531 L 665.815 86.857 L 665.815 86.857 Q 653.837 88.415 622.813 88.415 L 622.813 88.415 L 622.813 88.415 Q 614.309 88.415 608.859 83.204 L 608.859 83.204 L 608.859 83.204 Q 603.409 77.994 603.409 69.609 L 603.409 69.609 L 603.409 23.614 L 603.409 23.614 Q 603.409 15.229 608.859 10.019 L 608.859 10.019 L 608.859 10.019 Q 614.309 4.808 622.813 4.808 L 622.813 4.808 L 622.813 4.808 Q 653.837 4.808 665.815 6.365 L 665.815 6.365 L 664.617 24.692 L 634.312 24.692 L 634.312 24.692 Q 632.037 24.692 630.719 25.889 L 630.719 25.889 L 630.719 25.889 Q 629.401 27.087 629.401 29.004 L 629.401 29.004 L 629.401 37.029 L 660.305 37.029 L 660.305 54.277 L 629.401 54.277 L 629.401 64.219 L 629.401 64.219 Q 629.401 66.136 630.719 67.333 L 630.719 67.333 L 630.719 67.333 Q 632.037 68.531 634.312 68.531 L 634.312 68.531 Z " fill="rgb(23,68,80)"/></g></svg>