<?xml version="1.0" encoding="UTF-8" standalone="no"?><!-- Generator: Gravit.io --><svg xmlns="http://www.w3.org/2000/svg" xmlns:xlink="http://www.w3.org/1999/xlink" style="isolation:isolate" viewBox="0 0 416 92" width="416pt" height="92pt"><defs><clipPath id="_clipPath_ip9X6HqNG7wbD1brwOB9IFOGv3gVrFrw"><rect width="416" height="92"/></clipPath></defs><g clip-path="url(#_clipPath_ip9X6HqNG7wbD1brwOB9IFOGv3gVrFrw)"><mask id="_mask_7EBqtdIkV1PlqgWYjZqchPP7qNUMX6Wh" x="-200%" y="-200%" width="400%" height="400%"><rect x="-200%" y="-200%" width="400%" height="400%" style="fill:white;"/><path d=" M 39.5 11.279 L 65 80.493 L 39.5 65.921 L 14 80.493 L 39.5 11.279 L 39.5 11.279 Z " fill="black" stroke="none"/></mask><path d=" M 39.5 11.279 L 65 80.493 L 39.5 65.921 L 14 80.493 L 39.5 11.279 L 39.5 11.279 Z " fill="none" mask="url(#_mask_7EBqtdIkV1PlqgWYjZqchPP7qNUMX6Wh)" vector-effect="non-scaling-stroke" stroke-width="13" stroke="rgb(5,145,160)" stroke-linejoin="round" stroke-linecap="round" stroke-miterlimit="4"/><path d=" M 39.5 11.279 L 65 80.493 L 39.5 65.921 L 14 80.493 L 39.5 11.279 L 39.5 11.279 Z " fill="none"/><path d=" M 121.854 5 L 125.283 5 L 125.283 85.378 L 121.854 85.378 L 121.854 73.697 L 121.854 73.697 Q 118.638 79.591 112.53 83.074 L 112.53 83.074 L 112.53 83.074 Q 106.421 86.557 99.991 86.557 L 99.991 86.557 L 99.991 86.557 Q 89.381 86.557 81.932 79.109 L 81.932 79.109 L 81.932 79.109 Q 74.484 71.66 74.484 61.265 L 74.484 61.265 L 74.484 61.265 Q 74.484 50.869 81.932 43.421 L 81.932 43.421 L 81.932 43.421 Q 89.381 35.972 99.991 35.972 L 99.991 35.972 L 99.991 35.972 Q 106.635 35.972 112.798 39.509 L 112.798 39.509 L 112.798 39.509 Q 118.96 43.046 121.854 48.94 L 121.854 48.94 L 121.854 5 Z  M 77.913 61.318 L 77.913 61.318 L 77.913 61.318 Q 77.913 70.374 84.344 76.965 L 84.344 76.965 L 84.344 76.965 Q 90.774 83.556 99.83 83.556 L 99.83 83.556 L 99.83 83.556 Q 108.886 83.556 115.477 76.965 L 115.477 76.965 L 115.477 76.965 Q 122.068 70.374 122.068 61.372 L 122.068 61.372 L 122.068 61.372 Q 122.068 52.37 115.477 45.671 L 115.477 45.671 L 115.477 45.671 Q 108.886 38.973 99.884 38.973 L 99.884 38.973 L 99.884 38.973 Q 90.881 38.973 84.397 45.618 L 84.397 45.618 L 84.397 45.618 Q 77.913 52.262 77.913 61.318 Z  M 158.506 79.484 L 178.761 37.151 L 181.869 37.151 L 158.185 86.771 L 134.393 37.151 L 138.144 37.151 L 158.506 79.484 Z  M 215.092 86.664 L 215.092 86.664 L 214.128 86.664 L 214.128 86.664 Q 203.947 86.664 196.391 79.002 L 196.391 79.002 L 196.391 79.002 Q 188.835 71.339 188.835 61.158 L 188.835 61.158 L 188.835 61.158 Q 188.835 50.976 196.337 43.528 L 196.337 43.528 L 196.337 43.528 Q 203.839 36.08 214.878 36.08 L 214.878 36.08 L 214.878 36.08 Q 225.917 36.08 233.847 44.868 L 233.847 44.868 L 200.196 78.091 L 200.196 78.091 Q 207.162 83.663 213.592 83.663 L 213.592 83.663 L 213.592 83.663 Q 220.022 83.663 225.113 80.716 L 225.113 80.716 L 225.113 80.716 Q 230.203 77.769 233.526 72.839 L 233.526 72.839 L 233.526 78.305 L 233.526 78.305 Q 225.917 86.664 215.092 86.664 Z  M 213.967 39.08 L 213.967 39.08 L 213.967 39.08 Q 205.447 39.08 198.856 45.671 L 198.856 45.671 L 198.856 45.671 Q 192.265 52.262 192.265 60.836 L 192.265 60.836 L 192.265 60.836 Q 192.265 69.41 197.945 75.84 L 197.945 75.84 L 229.132 44.868 L 229.132 44.868 Q 222.487 39.08 213.967 39.08 Z  M 272.214 43.689 L 272.214 43.689 Q 267.499 38.973 261.819 38.973 L 261.819 38.973 L 261.819 38.973 Q 256.139 38.973 251.798 43.26 L 251.798 43.26 L 251.798 43.26 Q 247.458 47.547 247.458 53.227 L 247.458 53.227 L 247.458 85.378 L 244.028 85.378 L 244.028 37.151 L 247.458 37.151 L 247.458 44.332 L 247.458 44.332 Q 249.387 40.688 253.46 38.33 L 253.46 38.33 L 253.46 38.33 Q 257.532 35.972 262.569 35.972 L 262.569 35.972 L 262.569 35.972 Q 267.606 35.972 272.214 39.402 L 272.214 39.402 L 272.214 43.689 Z  M 298.578 83.02 L 298.578 83.02 L 298.578 86.021 L 298.578 86.021 Q 290.969 86.021 285.611 80.931 L 285.611 80.931 L 285.611 80.931 Q 280.252 75.84 280.252 67.909 L 280.252 67.909 L 280.252 17.753 L 283.682 17.753 L 283.682 37.258 L 298.471 37.258 L 298.471 40.259 L 283.682 40.259 L 283.682 67.909 L 283.682 67.909 Q 283.682 74.447 288.022 78.734 L 288.022 78.734 L 288.022 78.734 Q 292.363 83.02 298.578 83.02 Z  M 308.545 37.258 L 311.975 37.258 L 311.975 85.378 L 308.545 85.378 L 308.545 37.258 Z  M 310.26 25.47 L 310.26 25.47 L 310.26 25.47 Q 307.152 25.47 307.152 22.576 L 307.152 22.576 L 307.152 22.576 Q 307.152 19.682 310.26 19.682 L 310.26 19.682 L 310.26 19.682 Q 313.368 19.682 313.368 22.576 L 313.368 22.576 L 313.368 22.576 Q 313.368 25.47 310.26 25.47 Z  M 328.479 82.377 L 355.701 82.377 L 355.701 85.378 L 322.478 85.378 L 349.913 40.152 L 325.371 40.152 L 325.371 37.151 L 356.022 37.151 L 328.479 82.377 Z  M 389.245 86.664 L 389.245 86.664 L 388.281 86.664 L 388.281 86.664 Q 378.099 86.664 370.544 79.002 L 370.544 79.002 L 370.544 79.002 Q 362.988 71.339 362.988 61.158 L 362.988 61.158 L 362.988 61.158 Q 362.988 50.976 370.49 43.528 L 370.49 43.528 L 370.49 43.528 Q 377.992 36.08 389.031 36.08 L 389.031 36.08 L 389.031 36.08 Q 400.069 36.08 408 44.868 L 408 44.868 L 374.348 78.091 L 374.348 78.091 Q 381.314 83.663 387.745 83.663 L 387.745 83.663 L 387.745 83.663 Q 394.175 83.663 399.266 80.716 L 399.266 80.716 L 399.266 80.716 Q 404.356 77.769 407.678 72.839 L 407.678 72.839 L 407.678 78.305 L 407.678 78.305 Q 400.069 86.664 389.245 86.664 Z  M 388.12 39.08 L 388.12 39.08 L 388.12 39.08 Q 379.6 39.08 373.009 45.671 L 373.009 45.671 L 373.009 45.671 Q 366.418 52.262 366.418 60.836 L 366.418 60.836 L 366.418 60.836 Q 366.418 69.41 372.098 75.84 L 372.098 75.84 L 403.284 44.868 L 403.284 44.868 Q 396.64 39.08 388.12 39.08 Z " fill="rgb(23,68,80)" vector-effect="non-scaling-stroke" stroke-width="3" stroke="rgb(23,68,80)" stroke-linejoin="miter" stroke-linecap="square" stroke-miterlimit="3"/></g></svg>