<?xml version="1.0" encoding="UTF-8" standalone="no"?>
<!DOCTYPE svg PUBLIC "-//W3C//DTD SVG 1.1//EN" "http://www.w3.org/Graphics/SVG/1.1/DTD/svg11.dtd">
<svg width="100%" height="100%" viewBox="0 0 145 32" version="1.1" xmlns="http://www.w3.org/2000/svg" xmlns:xlink="http://www.w3.org/1999/xlink" xml:space="preserve" xmlns:serif="http://www.serif.com/" style="fill-rule:evenodd;clip-rule:evenodd;stroke-linejoin:round;stroke-miterlimit:2;">
    <g transform="matrix(0.940237,0,0,0.940237,-2.43655,0.206949)">
        <g>
            <g transform="matrix(0.0636305,0,0,0.0636305,-1.25492,-77.2875)">
                <path d="M164.604,1420.87L206.015,1308.89C206.015,1308.89 224.086,1259.69 228.244,1250.6C232.403,1241.52 238.029,1236.62 248.468,1235.26C258.907,1233.9 269.879,1237.58 274.53,1245.49C278.929,1252.98 283.359,1268.15 284.392,1268.15L292.629,1290.56L340.373,1422.44L410.655,1610.86C410.655,1610.86 425.883,1652.82 428.542,1661.52C431.2,1670.22 424.75,1680.86 419.315,1686.28C413.88,1691.7 399.876,1697.56 385.017,1688.19C370.436,1678.99 336.058,1660.74 336.196,1659.99L252.897,1611.86L126.351,1684.92C126.351,1684.92 105.111,1699.37 91.358,1689.83C77.606,1680.29 72.955,1672.04 79.432,1653.25C85.909,1634.45 97.662,1603.23 97.662,1603.23L122.662,1535.64L149.075,1464.33L164.604,1420.87ZM157.374,1602.58L252.935,1343.24L348.62,1603.62C348.62,1603.62 278.875,1563.12 269.763,1558.61C260.651,1554.1 247.843,1552.23 236.823,1558C225.802,1563.78 157.374,1602.58 157.374,1602.58Z" style="fill:rgb(5,145,160);"/>
            </g>
            <g>
                <g transform="matrix(0.0636305,0,0,0.0636305,-1.57307,-77.2875)">
                    <path d="M711.9,1431.15L711.9,1234.3L766.476,1234.3L766.476,1692.4L711.9,1692.4L711.9,1662.16C685.729,1684.04 652.015,1697.22 615.243,1697.22C532.048,1697.22 464.505,1629.76 464.505,1546.66C464.505,1463.56 532.048,1396.09 615.243,1396.09C652.015,1396.09 685.729,1409.27 711.9,1431.15ZM711.9,1536.23C706.914,1486.91 665.593,1448.38 615.425,1448.38C561.901,1448.38 518.446,1492.24 518.446,1546.25C518.446,1600.27 561.901,1644.13 615.425,1644.13C665.593,1644.13 706.914,1605.6 711.9,1556.28L711.9,1536.23Z" style="fill:rgb(23,68,80);"/>
                </g>
                <g transform="matrix(0.0636305,0,0,0.0636305,-1.57307,-77.2875)">
                    <path d="M800.996,1403.71L800.029,1401.72L861.346,1401.63L955.68,1598.1L1049.77,1401.64L1107.27,1401.76L954.117,1722.91L800.996,1403.71Z" style="fill:rgb(23,68,80);"/>
                </g>
                <g transform="matrix(0.0636305,0,0,0.0636305,-2.14575,-77.2875)">
                    <path d="M1380.08,1662.41C1353.56,1684.48 1319.38,1697.78 1282.1,1697.78C1197.87,1697.78 1129.49,1629.94 1129.49,1546.38C1129.49,1462.82 1197.87,1394.98 1282.1,1394.98C1334.52,1394.98 1380.8,1421.26 1408.28,1461.25L1365.37,1504.41L1235.69,1631.7C1249.86,1639.51 1266.17,1643.97 1283.51,1643.97C1321.23,1643.97 1363.03,1606.91 1379.62,1576.01L1380.08,1575.94L1380.08,1576.05L1380.08,1662.41ZM1330.2,1463.04C1315.83,1454.93 1299.21,1449.29 1281.51,1449.29C1227.09,1449.29 1184.9,1492.13 1184.9,1546.13C1184.9,1563.32 1189.37,1579.48 1197.23,1593.52L1330.2,1463.04Z" style="fill:rgb(23,68,80);"/>
                </g>
                <g transform="matrix(0.0636305,0,0,0.0636305,-2.14575,-77.2875)">
                    <path d="M1633.54,1497.62L1606.18,1470.29C1594.7,1456.39 1579.52,1447.92 1562.87,1447.92C1538.85,1447.92 1517.87,1465.56 1506.67,1491.73L1506.67,1578.64L1506.75,1578.8L1506.75,1605.1L1506.67,1605.05L1506.67,1691.38L1451.47,1691.38L1451.47,1401.7L1506.67,1401.7L1506.67,1413.57C1523.56,1402.56 1543.57,1396.18 1565,1396.18C1566.75,1396.18 1568.5,1396.22 1570.23,1396.31C1579.99,1396.08 1589.93,1398.41 1599.05,1401.77C1601.55,1402.61 1604.02,1403.55 1606.44,1404.58L1606.51,1404.81C1623.73,1412.48 1636.44,1422.55 1636.44,1422.55L1636.44,1500.51C1635.6,1499.68 1634.77,1498.85 1633.93,1498.01L1633.54,1497.62Z" style="fill:rgb(23,68,80);"/>
                </g>
                <g transform="matrix(0.0636305,0,0,0.0636305,-2.14575,-77.2875)">
                    <path d="M1675.27,1300.35L1675.27,1574.24C1675.27,1640.64 1700.79,1659.59 1733.14,1680.18C1765.5,1700.78 1808.18,1694.1 1808.18,1694.1L1807.73,1640.75C1807.73,1640.75 1815.24,1640.75 1784.45,1640.75C1753.67,1640.75 1729.59,1612.77 1729.59,1578.39C1729.59,1544 1730.11,1455.08 1730.11,1455.08L1807.21,1455.08L1807.21,1401.75L1729.79,1401.75L1729.79,1301.14L1675.27,1300.35Z" style="fill:rgb(23,68,80);"/>
                </g>
                <g transform="matrix(1,0,0,1,-0.572675,2.27374e-13)">
                    <g transform="matrix(0.0636305,0,0,0.0637573,-1.6367,-77.529)">
                        <path d="M1857.55,1402.9L1912.38,1402.9L1912.38,1691.54L1856.28,1691.54L1857.55,1402.9Z" style="fill:rgb(23,68,80);"/>
                    </g>
                    <g transform="matrix(0.0603066,0,0,0.0579534,4.17837,-70.8165)">
                        <circle cx="1892.34" cy="1354.29" r="37.39" style="fill:rgb(23,68,80);"/>
                    </g>
                </g>
                <g transform="matrix(0.0636305,0,0,0.0636305,-2.14575,-77.2875)">
                    <path d="M1978.29,1402.12L1978.29,1454.52L2091.52,1454.52L1948.91,1690.34L2173.72,1690.34L2174.01,1638.35L2046.4,1638.35L2190.01,1401.74L1978.29,1402.12Z" style="fill:rgb(23,68,80);"/>
                </g>
                <g id="_-" serif:id=" " transform="matrix(0.0636305,0,0,0.0636305,66.1736,-77.2231)">
                    <path d="M1380.08,1662.41C1353.56,1684.48 1319.38,1697.78 1282.1,1697.78C1197.87,1697.78 1129.49,1629.94 1129.49,1546.38C1129.49,1462.82 1197.87,1394.98 1282.1,1394.98C1334.52,1394.98 1380.8,1421.26 1408.28,1461.25L1365.37,1504.41L1235.69,1631.7C1249.86,1639.51 1266.17,1643.97 1283.51,1643.97C1321.23,1643.97 1363.03,1606.91 1379.62,1576.01L1380.08,1575.94L1380.08,1576.05L1380.08,1662.41ZM1330.2,1463.04C1315.83,1454.93 1299.21,1449.29 1281.51,1449.29C1227.09,1449.29 1184.9,1492.13 1184.9,1546.13C1184.9,1563.32 1189.37,1579.48 1197.23,1593.52L1330.2,1463.04Z" style="fill:rgb(23,68,80);"/>
                </g>
            </g>
        </g>
    </g>
</svg>
